<?xml version="1.0"?>
<svg xmlns="http://www.w3.org/2000/svg" xmlns:xlink="http://www.w3.org/1999/xlink" xmlns:svgjs="http://svgjs.com/svgjs" version="1.1" width="512" height="512" x="0" y="0" viewBox="0 0 366 366" style="enable-background:new 0 0 512 512" xml:space="preserve" class=""><g>
<g xmlns="http://www.w3.org/2000/svg">
	<g>
		<g>
			<path d="M351.4,66c-2-9.6-7.2-18-14-24.4c-10.8-10.8-25.6-17.2-41.6-17.2H271V7.6c0-4-3.2-7.6-7.6-7.6c-4,0-7.6,3.2-7.6,7.6V24     H111V7.6c0-4-3.2-7.6-7.6-7.6c-4,0-7.6,3.2-7.6,7.6V24H71c-12.4,0-23.6,3.6-33.2,10c-3.2,2-6,4.4-8.8,7.2     C18.2,52,11.8,66.8,11.8,82.8v40v184.4c0,16.4,6.8,31.2,17.2,41.6C39.8,359.6,54.6,366,70.6,366h224.8c16.4,0,31.2-6.8,41.6-17.2     c10.8-10.8,17.2-25.6,17.2-41.6V123.6v-40C354.2,77.6,353.4,71.6,351.4,66z M339.8,307.6c0,12.4-4.8,23.6-12.8,31.6     S307.8,352,295.8,352H71c-12,0-23.2-4.8-31.2-12.8S27,320,27,308V130.8h312.8V307.6z M340.2,116H27V83.2c0-12,4.8-23.2,12.8-31.2     S59,39.2,71,39.2h24.8v16.4c0,4,3.2,7.6,7.6,7.6c4,0,7.6-3.2,7.6-7.6V39.2h145.2v16.4c0,4,3.2,7.6,7.6,7.6c4,0,7.6-3.2,7.6-7.6     V39.2h24.8c12,0,23.2,4.8,31.2,12.8c6,6,10.4,13.6,12,22.4c0.4,2.8,0.8,6,0.8,8.8V116z" fill="#e0e1dd" data-original="#000000" style="" class=""/>
			<path d="M85.4,198.8c6.4,0,12.4-2.8,16.8-6.8c4.4-4.4,6.8-10.4,6.8-16.8c0-6.4-2.8-12.4-6.8-16.8c-4.4-4-10.4-6.8-16.8-6.8     c-6.4,0-12.4,2.8-16.8,6.8c-4.4,4.4-6.8,10.4-6.8,16.8c0,6.4,2.8,12.4,6.8,16.8C73,196.4,79,198.8,85.4,198.8z M78.6,168.8     c1.6-1.6,3.6-2.4,6.4-2.4c2.4,0,4.8,0.8,6.4,2.4c1.6,1.6,2.4,3.6,2.4,6.4c0.4,2.8-0.8,4.8-2.4,6.4c-1.6,1.6-3.6,2.4-6.4,2.4     c-2.4,0-4.8-0.8-6.4-2.4c-1.6-1.6-2.4-3.6-2.4-6.4C76.2,172.8,77,170.4,78.6,168.8z" fill="#e0e1dd" data-original="#000000" style="" class=""/>
			<path d="M150.6,198.8c6.4,0,12.4-2.8,16.8-6.8c4.4-4.4,6.8-10.4,6.8-16.8c0-6.4-2.8-12.4-6.8-16.8s-10-6.8-16.8-6.8     c-6.4,0-12.4,2.8-16.8,6.8c-4.4,4.4-6.8,10.4-6.8,16.8c0,6.4,2.8,12.4,6.8,16.8C138.2,196.4,144.2,198.8,150.6,198.8z      M144.2,168.8c1.6-1.6,3.6-2.4,6.4-2.4c2.4,0,4.8,0.8,6.4,2.4c1.6,1.6,2.4,3.6,2.4,6.4s-0.8,4.8-2.4,6.4     c-1.6,1.6-3.6,2.4-6.4,2.4c-2.4,0-4.8-0.8-6.4-2.4c-1.6-1.6-2.4-3.6-2.4-6.4C141.8,172.8,142.6,170.4,144.2,168.8z" fill="#e0e1dd" data-original="#000000" style="" class=""/>
			<path d="M216.2,198.8c6.4,0,12.4-2.8,16.8-6.8c4.4-4.4,6.8-10.4,6.8-16.8c0-6.4-2.8-12.4-6.8-16.8s-10.4-6.8-16.8-6.8     c-6.4,0-12.4,2.8-16.8,6.8c-4.4,4-6.8,10.4-6.8,16.8c0,6.4,2.8,12.4,6.8,16.8C203.8,196.4,209.8,198.8,216.2,198.8z M209.8,169.2     c1.6-1.6,3.6-2.4,6.4-2.4c2.4,0,4.8,0.8,6.4,2.4c1.6,1.6,2.4,3.6,2.4,6.4c0,2.4-1.2,4.4-2.8,6c-1.6,1.6-3.6,2.4-6.4,2.4     c-2.4,0-4.8-0.8-6.4-2.4c-1.2-1.6-2-3.6-2-6C207.4,173.2,208.2,170.8,209.8,169.2z" fill="#e0e1dd" data-original="#000000" style="" class=""/>
			<path d="M281.4,198.8c6.4,0,12.4-2.8,16.8-6.8c4.4-4.4,6.8-10.4,6.8-16.8c0-6.4-2.8-12.4-6.8-16.8c-4-4-10-6.8-16.8-6.8     c-6.4,0-12.4,2.8-16.8,6.8c-4.4,4.4-6.8,10.4-6.8,16.8c0,6.4,2.8,12.4,6.8,16.8C269,196.4,275,198.8,281.4,198.8z M275,168.8     c1.6-1.6,3.6-2.4,6.4-2.4c2.4,0,4.8,0.8,6.4,2.4c1.6,1.6,2.4,3.6,2.4,6.4s-0.8,4.8-2.4,6.4c-1.6,1.6-3.6,2.4-6.4,2.4     c-2.4,0-4.8-0.8-6.4-2.4c-1.6-1.6-2.4-3.6-2.4-6.4C272.6,172.8,273.4,170.4,275,168.8z" fill="#e0e1dd" data-original="#000000" style="" class=""/>
			<path d="M85.4,264.4c6.4,0,12.4-2.8,16.8-6.8c4.4-4.4,6.8-10.4,6.8-16.8c0-6.4-2.8-12.4-6.8-16.8c-4.4-4.4-10.4-6.8-16.8-6.8     c-6.4,0-12.4,2.8-16.8,6.8c-4.4,4.4-6.8,10.4-6.8,16.8c0,6.4,2.8,12.4,6.8,16.8C73,262,79,264.4,85.4,264.4z M78.6,234.4     c1.6-1.6,3.6-2.4,6.4-2.4c2.4,0,4.8,0.8,6.4,2.4c1.6,1.6,2.4,3.6,2.4,6.4c0.4,2.4-0.8,4.8-2.4,6.4c-1.6,1.6-3.6,2.4-6.4,2.4     c-2.4,0-4.8-0.8-6.4-2.4c-1.6-1.6-2.4-3.6-2.4-6.4C76.2,238.4,77,236,78.6,234.4z" fill="#e0e1dd" data-original="#000000" style="" class=""/>
			<path d="M150.6,264.4c6.4,0,12.4-2.8,16.8-6.8s6.8-10.4,6.8-16.8c0-6.4-2.8-12.4-6.8-16.8c-4-4.4-10-6.8-16.8-6.8     c-6.4,0-12.4,2.8-16.8,6.8c-4.4,4.4-6.8,10.4-6.8,16.8c0,6.4,2.8,12.4,6.8,16.8C138.2,262,144.2,264.4,150.6,264.4z M144.2,234.4     c1.6-1.6,3.6-2.4,6.4-2.4c2.4,0,4.8,0.8,6.4,2.4c1.6,1.6,2.4,3.6,2.4,6.4c0,2.4-0.8,4.8-2.4,6.4c-1.6,1.6-3.6,2.4-6.4,2.4     c-2.4,0-4.8-0.8-6.4-2.4c-1.6-1.6-2.4-3.6-2.4-6.4C141.8,238.4,142.6,236,144.2,234.4z" fill="#e0e1dd" data-original="#000000" style="" class=""/>
			<path d="M216.2,264.4c6.4,0,12.4-2.8,16.8-6.8c4.4-4,6.8-10.4,6.8-16.8c0-6.4-2.8-12.4-6.8-16.8c-4-4.4-10.4-6.8-16.8-6.8     c-6.4,0-12.4,2.8-16.8,6.8c-4.4,4-6.8,10.4-6.8,16.8c0,6.4,2.8,12.4,6.8,16.8C203.4,262,209.8,264.4,216.2,264.4z M209.4,234.4     c1.6-1.6,3.6-2.4,6.4-2.4c2.4,0,4.8,0.8,6.4,2.4c1.6,1.6,2.4,3.6,2.4,6.4c0.4,2.4-0.8,4.8-2.4,6.4c-1.6,1.6-3.6,2.4-6.4,2.4     c-2.4,0-4.8-0.8-6.4-2.4c-1.6-1.6-2.4-3.6-2.4-6.4C207,238.4,207.8,236,209.4,234.4z" fill="#e0e1dd" data-original="#000000" style="" class=""/>
			<path d="M281.4,264.4c6.4,0,12.4-2.8,16.8-6.8c4.4-4.4,6.8-10.4,6.8-16.8c0-6.4-2.8-12.4-6.8-16.8c-4-4.4-10-6.8-16.8-6.8     c-6.4,0-12.4,2.8-16.8,6.8c-4.4,4.4-6.8,10.4-6.8,16.8c0,6.4,2.8,12.4,6.8,16.8C269,262,275,264.4,281.4,264.4z M275,234.4     c1.6-1.6,3.6-2.4,6.4-2.4c2.4,0,4.8,0.8,6.4,2.4c1.6,1.6,2.4,3.6,2.4,6.4c0,2.4-0.8,4.8-2.4,6.4c-1.6,1.6-3.6,2.4-6.4,2.4     c-2.4,0-4.8-0.8-6.4-2.4c-1.6-1.6-2.4-3.6-2.4-6.4C272.6,238.4,273.4,236,275,234.4z" fill="#e0e1dd" data-original="#000000" style="" class=""/>
			<path d="M85.4,329.2c6.4,0,12.4-2.8,16.8-6.8c4.4-4.4,6.8-10.4,6.8-16.8c0-6.4-2.8-12.4-6.8-16.8c-4.4-4.4-10.4-6.8-16.8-6.8     c-6.4,0-12.4,2.8-16.8,6.8c-4.4,4.4-6.8,10.4-6.8,16.8c0,6.4,2.8,12.4,6.8,16.8C73,326.8,79,329.2,85.4,329.2z M78.6,299.2     c1.6-1.6,3.6-2.4,6.4-2.4c2.4,0,4.8,0.8,6.4,2.4c1.6,1.6,2.4,3.6,2.4,6.4c0.4,2.4-0.8,4.8-2.4,6.4c-1.6,1.6-3.6,2.4-6.4,2.4     c-2.4,0-4.8-0.8-6.4-2.4c-1.6-1.6-2.4-3.6-2.4-6.4C76.2,303.2,77,300.8,78.6,299.2z" fill="#e0e1dd" data-original="#000000" style="" class=""/>
			<path d="M150.6,329.2c6.4,0,12.4-2.8,16.8-6.8s6.8-10.4,6.8-16.8c0-6.4-2.8-12.4-6.8-16.8c-4-4.4-10-6.8-16.8-6.8     c-6.4,0-12.4,2.8-16.8,6.8c-4.4,4.4-6.8,10.4-6.8,16.8c0,6.4,2.8,12.4,6.8,16.8C138.2,326.8,144.2,329.2,150.6,329.2z      M144.2,299.2c1.6-1.6,3.6-2.4,6.4-2.4c2.4,0,4.8,0.8,6.4,2.4c1.6,1.6,2.4,3.6,2.4,6.4c0,2.4-0.8,4.8-2.4,6.4     c-1.6,1.6-3.6,2.4-6.4,2.4c-2.4,0-4.8-0.8-6.4-2.4c-1.6-1.6-2.4-3.6-2.4-6.4C141.8,303.2,142.6,300.8,144.2,299.2z" fill="#e0e1dd" data-original="#000000" style="" class=""/>
			<path d="M216.2,329.2c6.4,0,12.4-2.8,16.8-6.8c4.4-4,6.8-10.4,6.8-16.8c0-6.4-2.8-12.4-6.8-16.8c-4.4-4.4-10.4-6.8-16.8-6.8     c-6.4,0-12.4,2.8-16.8,6.8c-4.4,4.4-6.8,10.4-6.8,16.8c0,6.4,2.8,12.4,6.8,16.8C203.4,326.8,209.8,329.2,216.2,329.2z      M209.4,299.2c1.6-1.6,3.6-2.4,6.4-2.4c2.4,0,4.8,0.8,6.4,2.4c1.6,1.6,2.4,3.6,2.4,6.4c0.4,2.4-0.8,4.8-2.4,6.4     c-1.6,1.6-3.6,2.4-6.4,2.4c-2.4,0-4.8-0.8-6.4-2.4c-1.6-1.6-2.4-3.6-2.4-6.4C207,303.2,207.8,300.8,209.4,299.2z" fill="#e0e1dd" data-original="#000000" style="" class=""/>
			<path d="M281.4,329.2c6.4,0,12.4-2.8,16.8-6.8c4.4-4.4,6.8-10.4,6.8-16.8c0-6.4-2.8-12.4-6.8-16.8c-4-4.4-10-6.8-16.8-6.8     c-6.4,0-12.4,2.8-16.8,6.8c-4.4,4.4-6.8,10.4-6.8,16.8c0,6.4,2.8,12.4,6.8,16.8C269,326.8,275,329.2,281.4,329.2z M275,299.2     c1.6-1.6,3.6-2.4,6.4-2.4c2.4,0,4.8,0.8,6.4,2.4c1.6,1.6,2.4,3.6,2.4,6.4c0,2.4-0.8,4.8-2.4,6.4c-1.6,1.6-3.6,2.4-6.4,2.4     c-2.4,0-4.8-0.8-6.4-2.4c-1.6-1.6-2.4-3.6-2.4-6.4C272.6,303.2,273.4,300.8,275,299.2z" fill="#e0e1dd" data-original="#000000" style="" class=""/>
		</g>
	</g>
</g>
<g xmlns="http://www.w3.org/2000/svg">
</g>
<g xmlns="http://www.w3.org/2000/svg">
</g>
<g xmlns="http://www.w3.org/2000/svg">
</g>
<g xmlns="http://www.w3.org/2000/svg">
</g>
<g xmlns="http://www.w3.org/2000/svg">
</g>
<g xmlns="http://www.w3.org/2000/svg">
</g>
<g xmlns="http://www.w3.org/2000/svg">
</g>
<g xmlns="http://www.w3.org/2000/svg">
</g>
<g xmlns="http://www.w3.org/2000/svg">
</g>
<g xmlns="http://www.w3.org/2000/svg">
</g>
<g xmlns="http://www.w3.org/2000/svg">
</g>
<g xmlns="http://www.w3.org/2000/svg">
</g>
<g xmlns="http://www.w3.org/2000/svg">
</g>
<g xmlns="http://www.w3.org/2000/svg">
</g>
<g xmlns="http://www.w3.org/2000/svg">
</g>
</g></svg>
