<?xml version="1.0"?>
<svg xmlns="http://www.w3.org/2000/svg" xmlns:xlink="http://www.w3.org/1999/xlink" xmlns:svgjs="http://svgjs.com/svgjs" version="1.1" width="512" height="512" x="0" y="0" viewBox="0 0 511.99494 511" style="enable-background:new 0 0 512 512" xml:space="preserve" class=""><g><path xmlns="http://www.w3.org/2000/svg" d="m437.019531 75.476562c-48.351562-48.351562-112.640625-74.980468-181.019531-74.980468s-132.667969 26.628906-181.019531 74.980468c-48.351563 48.355469-74.980469 112.640626-74.980469 181.019532 0 18.8125 2.050781 37.582031 6.097656 55.789062 2.335938 10.5 5.371094 20.953125 9.019532 31.070313 2.222656 6.167969 8.039062 10.007812 14.238281 10.007812 1.707031 0 3.4375-.292969 5.136719-.902343 7.863281-2.839844 11.9375-11.511719 9.101562-19.375-3.214844-8.914063-5.886719-18.121094-7.941406-27.371094-2.480469-11.167969-4.09375-22.578125-4.855469-34.082032h46.539063c8.359374 0 15.136718-6.777343 15.136718-15.136718s-6.777344-15.136719-15.136718-15.136719h-46.542969c2.003906-30.097656 9.929687-58.597656 22.625-84.347656l40.285156 23.261719c2.382813 1.375 4.984375 2.03125 7.554687 2.03125 5.230469 0 10.320313-2.714844 13.121094-7.570313 4.179688-7.242187 1.699219-16.5-5.539062-20.679687l-40.25-23.238282c16.382812-24.351562 37.378906-45.347656 61.726562-61.730468l23.242188 40.25c2.800781 4.859374 7.890625 7.574218 13.121094 7.574218 2.566406 0 5.171874-.65625 7.554687-2.03125 7.242187-4.179687 9.722656-13.4375 5.539063-20.679687l-23.257813-40.285157c25.75-12.695312 54.246094-20.621093 84.34375-22.621093v46.539062c0 8.359375 6.777344 15.136719 15.136719 15.136719s15.140625-6.777344 15.140625-15.136719v-46.539062c30.09375 2.003906 58.59375 9.925781 84.34375 22.621093l-23.261719 40.289063c-4.179688 7.238281-1.699219 16.496094 5.542969 20.675781 2.382812 1.375 4.984375 2.03125 7.554687 2.03125 5.230469 0 10.316406-2.714844 13.121094-7.570312l23.238281-40.253906c24.351563 16.382812 45.347657 37.378906 61.730469 61.730468l-40.25 23.238282c-7.242188 4.179687-9.722656 13.4375-5.542969 20.679687 2.804688 4.855469 7.894531 7.570313 13.125 7.570313 2.566407 0 5.171875-.652344 7.554688-2.03125l40.285156-23.257813c12.695313 25.746094 20.621094 54.246094 22.625 84.34375h-46.542969c-8.363281 0-15.140625 6.777344-15.140625 15.136719s6.777344 15.136718 15.140625 15.136718h46.539063c-.722657 10.890626-2.203125 21.703126-4.464844 32.289063-1.871094 8.742187-4.289063 17.460937-7.191406 25.910156-2.714844 7.910157 1.496093 16.519531 9.402343 19.234375 7.90625 2.710938 16.519532-1.496094 19.234376-9.402344 3.292968-9.59375 6.039062-19.488281 8.160156-29.410156 3.753906-17.5625 5.65625-35.648437 5.65625-53.757812.003906-68.378906-26.625-132.664063-74.976563-181.019532zm0 0" fill="#e0e1dd" data-original="#000000" style=""/><path xmlns="http://www.w3.org/2000/svg" d="m340.925781 149.980469-64.542969 69.546875c-6.191406-3.527344-13.347656-5.554688-20.96875-5.554688-23.449218 0-42.523437 19.078125-42.523437 42.523438 0 23.449218 19.074219 42.523437 42.523437 42.523437 23.445313 0 42.523438-19.074219 42.523438-42.523437 0-4.664063-.769531-9.152344-2.164062-13.355469l67.34375-72.566406c5.6875-6.128907 5.328124-15.707031-.800782-21.394531s-15.703125-5.328126-21.390625.800781zm-85.511719 118.765625c-6.753906 0-12.25-5.496094-12.25-12.25s5.496094-12.246094 12.25-12.246094c6.753907 0 12.25 5.492188 12.25 12.246094s-5.496093 12.25-12.25 12.25zm0 0" fill="#e0e1dd" data-original="#000000" style=""/></g></svg>
