<svg width="227" height="104" viewBox="0 0 227 104" fill="none" xmlns="http://www.w3.org/2000/svg">
<g clip-path="url(#clip0)">
<path d="M169.347 75.067V79.8702H155.349V14.4096H169.347V37.4649C171.954 34.7202 177.581 32.5245 183.207 32.5245C199.95 32.5245 209.282 41.8564 209.282 56.5404C209.282 71.2245 199.95 80.5564 183.207 80.5564C176.62 80.5564 171.131 77.6745 169.347 75.067ZM196.245 56.5404C196.245 52.4234 195.147 49.1298 192.814 46.7968C190.481 44.4638 187.462 43.2287 183.894 43.2287C180.325 43.2287 177.306 44.4638 174.973 46.7968C172.778 49.1298 171.542 52.2862 171.542 56.5404C171.542 60.7947 172.64 64.0883 174.973 66.4213C177.306 68.7543 180.325 69.8521 183.894 69.8521C187.462 69.8521 190.481 68.617 192.814 66.284C195.147 63.9511 196.245 60.6574 196.245 56.5404Z" fill="white"/>
<path d="M210.929 15.7819C213.948 12.9 218.888 12.9 221.907 15.7819C224.927 18.6638 224.927 23.467 221.907 26.3489C218.888 29.2309 213.948 29.2309 210.929 26.3489C207.91 23.467 207.91 18.6638 210.929 15.7819ZM209.556 34.4457H223.554V80.9681H209.556V34.4457Z" fill="white"/>
<path d="M115.002 75.067V79.8702H101.004V14.4096H115.002V37.4649C117.61 34.7202 123.236 32.5245 128.863 32.5245C145.605 32.5245 154.937 41.8564 154.937 56.5404C154.937 71.2245 145.605 80.5564 128.863 80.5564C122.413 80.5564 116.786 77.6745 115.002 75.067ZM142.037 56.5404C142.037 52.4234 140.939 49.1298 138.606 46.7968C136.273 44.4638 133.254 43.2287 129.686 43.2287C126.118 43.2287 123.099 44.4638 120.766 46.7968C118.57 49.1298 117.335 52.2862 117.335 56.5404C117.335 60.7947 118.433 64.0883 120.766 66.4213C123.099 68.7543 126.118 69.8521 129.686 69.8521C133.254 69.8521 136.273 68.617 138.606 66.284C140.802 63.9511 142.037 60.6574 142.037 56.5404Z" fill="white"/>
<path d="M63.6766 82.4777C59.4223 80.9681 49.9532 77.6745 48.4436 61.4809V32.7989V35.8181V2.05851H32.3872V35.8181V32.7989V64.3628C32.9361 89.4766 55.1681 97.0245 63.6766 96.4755V82.4777Z" fill="white"/>
<g filter="url(#filter0_d)">
<path d="M30.7405 2.05851V27.0351L3.15641 16.6053C1.23513 15.9191 1.23513 13.1745 3.15641 12.4883L30.7405 2.05851Z" fill="#FC9B3D"/>
</g>
<path d="M94.2798 38.9745C89.8883 34.3085 83.85 31.9755 76.1649 31.9755C68.4798 31.9755 62.5788 34.3085 58.05 38.9745C53.6585 43.6404 51.3256 49.4043 51.3256 56.5404C51.3256 63.6766 53.5213 69.5777 58.05 74.2436C62.4415 78.9096 68.4798 81.1053 76.1649 81.1053C83.85 81.1053 89.7511 78.7723 94.2798 74.2436C98.6713 69.5777 101.004 63.6766 101.004 56.5404C101.004 49.4043 98.6713 43.6404 94.2798 38.9745ZM86.0458 66.833C83.4383 69.3032 80.1447 70.5383 76.1649 70.5383C72.1851 70.5383 68.8915 69.3032 66.2841 66.833C63.8139 64.3628 62.5787 60.9319 62.5787 56.4032C62.5787 52.0117 63.8139 48.5808 66.2841 46.1106C68.8915 43.6404 72.1851 42.4053 76.1649 42.4053C80.1447 42.4053 83.4383 43.6404 86.0458 46.1106C88.6532 48.5808 89.8883 52.0117 89.8883 56.4032C89.8883 60.9319 88.516 64.3628 86.0458 66.833Z" fill="white"/>
<path d="M113.899 89.5572V82.6955H106.763V89.5572H113.899Z" fill="white"/>
<path d="M106.744 96.3183V89.4566H99.6075V96.3183H106.744Z" fill="white"/>
<path d="M113.908 96.4274V89.5657H106.772V96.4274H113.908Z" fill="#231F20"/>
<path d="M106.735 89.4481V82.5863H99.5989V89.4481H106.735Z" fill="#231F20"/>
<path d="M99.5709 89.4762V82.6145H92.4348V89.4762H99.5709Z" fill="white"/>
<path d="M92.415 96.3745V89.5128H85.2789V96.3745H92.415Z" fill="white"/>
<path d="M99.5793 96.3464V89.4847H92.4432V96.3464H99.5793Z" fill="#231F20"/>
<path d="M92.4065 89.5043V82.6426H85.2703V89.5043H92.4065Z" fill="#231F20"/>
<path d="M85.2422 89.5324V82.6708H78.106V89.5324H85.2422Z" fill="white"/>
<path d="M78.0864 96.4308V89.5691H70.9503V96.4308H78.0864Z" fill="white"/>
<path d="M85.2507 96.4027V89.541H78.1146V96.4027H85.2507Z" fill="#231F20"/>
<path d="M78.078 89.5606V82.6989H70.9418V89.5606H78.078Z" fill="#231F20"/>
<path d="M70.9136 89.4515V82.5898H63.7774V89.4515H70.9136Z" fill="white"/>
<path d="M70.9221 96.3217V89.46H63.7859V96.3217H70.9221Z" fill="#231F20"/>
</g>
<defs>
<filter id="filter0_d" x="-2.28455" y="2.05851" width="37.025" height="32.9766" filterUnits="userSpaceOnUse" color-interpolation-filters="sRGB">
<feFlood flood-opacity="0" result="BackgroundImageFix"/>
<feColorMatrix in="SourceAlpha" type="matrix" values="0 0 0 0 0 0 0 0 0 0 0 0 0 0 0 0 0 0 127 0"/>
<feOffset dy="4"/>
<feGaussianBlur stdDeviation="2"/>
<feColorMatrix type="matrix" values="0 0 0 0 0 0 0 0 0 0 0 0 0 0 0 0 0 0 0.25 0"/>
<feBlend mode="normal" in2="BackgroundImageFix" result="effect1_dropShadow"/>
<feBlend mode="normal" in="SourceGraphic" in2="effect1_dropShadow" result="shape"/>
</filter>
<clipPath id="clip0">
<rect width="226.299" height="103.2" fill="white"/>
</clipPath>
</defs>
</svg>

